<?xml version="1.0" encoding="UTF-8" standalone="no"?>
<!DOCTYPE svg PUBLIC "-//W3C//DTD SVG 1.1//EN"
 "http://www.w3.org/Graphics/SVG/1.1/DTD/svg11.dtd">
<!-- Generated by graphviz version 15.1.1 (20260805.0921)
 -->
<!-- Title: attestflow Pages: 1 -->
<svg width="1045pt" height="123pt"
 viewBox="0.00 0.00 1045.00 123.00" xmlns="http://www.w3.org/2000/svg" xmlns:xlink="http://www.w3.org/1999/xlink">
<g id="graph0" class="graph" transform="scale(1 1) rotate(0) translate(4 119)">
<title>attestflow</title>
<g id="clust1" class="cluster">
<title>cluster_rounds</title>
<path fill="none" stroke="#5b79c7" stroke-dasharray="5,2" d="M363.09,-8C363.09,-8 811.93,-8 811.93,-8 817.93,-8 823.93,-14 823.93,-20 823.93,-20 823.93,-95 823.93,-95 823.93,-101 817.93,-107 811.93,-107 811.93,-107 363.09,-107 363.09,-107 357.09,-107 351.09,-101 351.09,-95 351.09,-95 351.09,-20 351.09,-20 351.09,-14 357.09,-8 363.09,-8"/>
<text xml:space="preserve" text-anchor="middle" x="587.51" y="-92.55" font-family="Helvetica,sans-Serif" font-size="11.00" fill="#5b79c7">review rounds — repeat until the score clears</text>
</g>
<!-- A -->
<g id="node1" class="node">
<title>A</title>
<path fill="#e8ecf6" stroke="#5b79c7" d="M120.42,-54.23C120.42,-54.23 12,-54.23 12,-54.23 6,-54.23 0,-48.23 0,-42.23 0,-42.23 0,-27.77 0,-27.77 0,-21.77 6,-15.77 12,-15.77 12,-15.77 120.42,-15.77 120.42,-15.77 126.42,-15.77 132.42,-21.77 132.42,-27.77 132.42,-27.77 132.42,-42.23 132.42,-42.23 132.42,-48.23 126.42,-54.23 120.42,-54.23"/>
<text xml:space="preserve" text-anchor="middle" x="66.21" y="-36.35" font-family="Helvetica,sans-Serif" font-size="12.00" fill="#1f2b4a">1. Attempt</text>
<text xml:space="preserve" text-anchor="middle" x="66.21" y="-23.6" font-family="Helvetica,sans-Serif" font-size="12.00" fill="#1f2b4a">the loop writes code</text>
</g>
<!-- B -->
<g id="node2" class="node">
<title>B</title>
<path fill="#e8ecf6" stroke="#5b79c7" d="M310.09,-54.23C310.09,-54.23 181.42,-54.23 181.42,-54.23 175.42,-54.23 169.42,-48.23 169.42,-42.23 169.42,-42.23 169.42,-27.77 169.42,-27.77 169.42,-21.77 175.42,-15.77 181.42,-15.77 181.42,-15.77 310.09,-15.77 310.09,-15.77 316.09,-15.77 322.09,-21.77 322.09,-27.77 322.09,-27.77 322.09,-42.23 322.09,-42.23 322.09,-48.23 316.09,-54.23 310.09,-54.23"/>
<text xml:space="preserve" text-anchor="middle" x="245.76" y="-36.35" font-family="Helvetica,sans-Serif" font-size="12.00" fill="#1f2b4a">2. PR opened</text>
<text xml:space="preserve" text-anchor="middle" x="245.76" y="-23.6" font-family="Helvetica,sans-Serif" font-size="12.00" fill="#1f2b4a">attribution in description</text>
</g>
<!-- A&#45;&gt;B -->
<g id="edge1" class="edge">
<title>A&#45;&gt;B</title>
<path fill="none" stroke="#888888" d="M132.82,-35C140.9,-35 149.26,-35 157.59,-35"/>
<polygon fill="#888888" stroke="#888888" points="157.41,-38.5 167.41,-35 157.41,-31.5 157.41,-38.5"/>
</g>
<!-- C -->
<g id="node4" class="node">
<title>C</title>
<path fill="#e8ecf6" stroke="#5b79c7" d="M527.51,-54.23C527.51,-54.23 371.09,-54.23 371.09,-54.23 365.09,-54.23 359.09,-48.23 359.09,-42.23 359.09,-42.23 359.09,-27.77 359.09,-27.77 359.09,-21.77 365.09,-15.77 371.09,-15.77 371.09,-15.77 527.51,-15.77 527.51,-15.77 533.51,-15.77 539.51,-21.77 539.51,-27.77 539.51,-27.77 539.51,-42.23 539.51,-42.23 539.51,-48.23 533.51,-54.23 527.51,-54.23"/>
<text xml:space="preserve" text-anchor="middle" x="449.3" y="-36.35" font-family="Helvetica,sans-Serif" font-size="12.00" fill="#1f2b4a">3. Bot review</text>
<text xml:space="preserve" text-anchor="middle" x="449.3" y="-23.6" font-family="Helvetica,sans-Serif" font-size="12.00" fill="#1f2b4a">scores + edits the description</text>
</g>
<!-- B&#45;&gt;C -->
<g id="edge2" class="edge">
<title>B&#45;&gt;C</title>
<path fill="none" stroke="#888888" d="M322.38,-35C330.52,-35 338.89,-35 347.27,-35"/>
<polygon fill="#888888" stroke="#888888" points="347.15,-38.5 357.15,-35 347.15,-31.5 347.15,-38.5"/>
</g>
<!-- E -->
<g id="node3" class="node">
<title>E</title>
<path fill="#f6efe0" stroke="#c79b4b" d="M1024.85,-53C1024.85,-53 932.93,-53 932.93,-53 926.93,-53 920.93,-47 920.93,-41 920.93,-41 920.93,-29 920.93,-29 920.93,-23 926.93,-17 932.93,-17 932.93,-17 1024.85,-17 1024.85,-17 1030.85,-17 1036.85,-23 1036.85,-29 1036.85,-29 1036.85,-41 1036.85,-41 1036.85,-47 1030.85,-53 1024.85,-53"/>
<text xml:space="preserve" text-anchor="middle" x="978.89" y="-29.98" font-family="Helvetica,sans-Serif" font-size="12.00" fill="#3a2b12">5. Human review</text>
</g>
<!-- D -->
<g id="node5" class="node">
<title>D</title>
<path fill="#e8ecf6" stroke="#5b79c7" d="M803.93,-54.23C803.93,-54.23 655.76,-54.23 655.76,-54.23 649.76,-54.23 643.76,-48.23 643.76,-42.23 643.76,-42.23 643.76,-27.77 643.76,-27.77 643.76,-21.77 649.76,-15.77 655.76,-15.77 655.76,-15.77 803.93,-15.77 803.93,-15.77 809.93,-15.77 815.93,-21.77 815.93,-27.77 815.93,-27.77 815.93,-42.23 815.93,-42.23 815.93,-48.23 809.93,-54.23 803.93,-54.23"/>
<text xml:space="preserve" text-anchor="middle" x="729.85" y="-36.35" font-family="Helvetica,sans-Serif" font-size="12.00" fill="#1f2b4a">4. The loop fixes the code</text>
<text xml:space="preserve" text-anchor="middle" x="729.85" y="-23.6" font-family="Helvetica,sans-Serif" font-size="12.00" fill="#1f2b4a">and rewrites the description</text>
</g>
<!-- C&#45;&gt;D -->
<g id="edge3" class="edge">
<title>C&#45;&gt;D</title>
<path fill="none" stroke="#888888" d="M539.8,-34.78C545.8,-34.77 551.74,-34.76 557.51,-34.75 587.84,-34.71 595.43,-34.71 625.76,-34.75 627.82,-34.75 629.9,-34.76 632,-34.76"/>
<polygon fill="#888888" stroke="#888888" points="631.82,-38.26 641.83,-34.77 631.84,-31.26 631.82,-38.26"/>
<text xml:space="preserve" text-anchor="middle" x="591.64" y="-36.5" font-family="Helvetica,sans-Serif" font-size="10.00" fill="#555555">below threshold</text>
</g>
<!-- D&#45;&gt;E -->
<g id="edge5" class="edge">
<title>D:e&#45;&gt;E</title>
<path fill="none" stroke="#888888" d="M823.93,-35C852.23,-35 882.72,-35 909.05,-35"/>
<polygon fill="#888888" stroke="#888888" points="909.02,-38.5 919.02,-35 909.02,-31.5 909.02,-38.5"/>
<text xml:space="preserve" text-anchor="middle" x="868.43" y="-36.75" font-family="Helvetica,sans-Serif" font-size="10.00" fill="#555555">above threshold</text>
</g>
<!-- D&#45;&gt;C -->
<g id="edge4" class="edge">
<title>D&#45;&gt;C</title>
<path fill="none" stroke="#888888" d="M643.4,-44.82C637.44,-45.29 631.51,-45.69 625.76,-46 595.47,-47.61 587.8,-47.55 557.51,-46 555.43,-45.89 553.32,-45.78 551.21,-45.65"/>
<polygon fill="#888888" stroke="#888888" points="551.47,-42.16 541.26,-44.97 551,-49.14 551.47,-42.16"/>
<text xml:space="preserve" text-anchor="middle" x="591.64" y="-48.94" font-family="Helvetica,sans-Serif" font-size="10.00" fill="#555555">next round</text>
</g>
</g>
</svg>
